Coordinates
version=1
nRows=29
nColumns=24
inDegrees=yes

Units are S.I. units (second, meters, Newtons, ...)
Angles are in degrees.

endheader
time	pelvis_tilt	pelvis_list	pelvis_rotation	pelvis_tx	pelvis_ty	pelvis_tz	hip_flexion_r	hip_adduction_r	hip_rotation_r	knee_angle_r	ankle_angle_r	subtalar_angle_r	mtp_angle_r	hip_flexion_l	hip_adduction_l	hip_rotation_l	knee_angle_l	ankle_angle_l	subtalar_angle_l	mtp_angle_l	lumbar_extension	lumbar_bending	lumbar_rotation
      1.04966667	      7.00348563	     -6.08747834	     10.04747410	      0.53957110	      1.03350562	      0.27846098	      5.09783919	     13.01301850	     -3.74652082	    -18.45364997	      9.12526884	     -8.06059052	      5.10800685	     17.10980885	     -7.86723521	      3.15877301	    -58.69504898	     10.87946274	      0.74009364	      2.78184820	     -6.97044688	      5.07600946	     -0.66746840
      1.05383333	      7.06772081	     -5.93485119	      9.83393938	      0.54383360	      1.03472823	      0.27882282	      4.46591953	     12.91701544	     -3.54931896	    -17.97500861	      9.15023920	     -7.85183344	      5.11325787	     17.28123681	     -7.61874684	      2.98722030	    -57.59323758	     10.81445604	     -0.13712564	      2.65525808	     -7.11643562	      4.91445001	     -0.47798281
      1.05800000	      7.14723871	     -5.78642136	      9.64652057	      0.54811526	      1.03595275	      0.27914803	      3.81013652	     12.82354511	     -3.37809883	    -17.47074669	      9.18319713	     -7.64425060	      5.12171927	     17.42470353	     -7.37682251	      2.83931408	    -56.44941614	     10.68131600	     -1.02073443	      2.48153422	     -7.26284672	      4.74261582	     -0.26336731
      1.06216667	      7.19630333	     -5.63623657	      9.43267633	      0.55237857	      1.03706392	      0.27948282	      3.20312423	     12.71914776	     -3.17831437	    -17.00238097	      9.20844088	     -7.44782734	      5.13157740	     17.58205074	     -7.13486523	      2.66712523	    -55.27609573	     10.54765283	     -1.89220807	      2.30044260	     -7.38894529	      4.58231804	     -0.08427745
      1.06633333	      7.24149622	     -5.48013643	      9.19895571	      0.55662983	      1.03813501	      0.27983633	      2.60821205	     12.60488047	     -2.95011713	    -16.55190373	      9.21203068	     -7.25745255	      5.14015006	     17.72025495	     -6.89626794	      2.47296984	    -54.06146811	     10.40627812	     -2.73789205	      2.14309581	     -7.53280570	      4.42523681	      0.06144268
      1.07050000	      7.29411855	     -5.33668400	      8.99382198	      0.56089648	      1.03914549	      0.28013805	      2.00292073	     12.50048911	     -2.75420160	    -16.08283259	      9.23370504	     -7.08066180	      5.15095690	     17.84779215	     -6.66735832	      2.31157415	    -52.82335658	     10.20261166	     -3.56844274	      1.96336133	     -7.65618553	      4.27083566	      0.23030363
      1.07466667	      7.35795028	     -5.21096552	      8.80351641	      0.56517249	      1.04011467	      0.28039263	      1.39304180	     12.40643466	     -2.61619455	    -15.61314204	      9.22214360	     -6.83798003	      5.18956090	     17.95630999	     -6.45425910	      2.17728136	    -51.56352926	     10.00670348	     -4.37823212	      1.42050763	     -7.77396924	      4.14731320	      0.51458781
      1.07883333	      7.38373923	     -5.08334895	      8.59084281	      0.56944434	      1.04095076	      0.28071642	      0.82466615	     12.31725891	     -2.35974228	    -15.15451470	      9.27908800	     -6.74886901	      5.20483522	     18.09207266	     -6.25042454	      2.01511383	    -50.27757372	      9.75474950	     -5.07060607	      1.19726642	     -7.86701067	      3.99193520	      0.58267429
      1.08300000	      7.41485275	     -4.94611618	      8.34480036	      0.57370330	      1.04175928	      0.28104737	      0.26766960	     12.20740989	     -2.10653115	    -14.73544729	      9.28126797	     -6.60954398	      5.21702780	     18.19395854	     -6.04742954	      1.81920581	    -48.95513140	      9.51744234	     -5.70732946	      1.01784364	     -7.98523240	      3.84497602	      0.69339972
      1.08716667	      7.42919875	     -4.84906510	      8.15528405	      0.57799364	      1.04244392	      0.28129233	     -0.27949735	     12.13584399	     -1.90733868	    -14.26973316	      9.30001268	     -6.49009362	      5.23513636	     18.33173959	     -5.86576241	      1.70558832	    -47.63624763	      9.23410754	     -6.34419559	      0.77515848	     -8.03690249	      3.73215683	      0.86142912
      1.09133333	      7.45674761	     -4.74853518	      7.93746448	      0.58227065	      1.04309695	      0.28156676	     -0.83021762	     12.05874528	     -1.67003848	    -13.83166767	      9.29473596	     -6.37115926	      5.25992399	     18.43231786	     -5.69226004	      1.57437704	    -46.28916168	      8.96280373	     -6.88080160	      0.47527135	     -8.13042488	      3.62520720	      1.02569496
      1.09550000	      7.46657987	     -4.66335691	      7.69540993	      0.58654669	      1.04364354	      0.28187880	     -1.35060947	     11.99323651	     -1.41107274	    -13.41236784	      9.28698056	     -6.28016515	      5.60469373	     18.54869229	     -5.55103172	      1.40237124	    -44.95064360	      8.80248004	     -7.22362065	     -3.00787497	     -8.19638764	      3.53237154	      1.19550273
      1.09966667	      7.45033938	     -4.58296863	      7.45524812	      0.59082231	      1.04409063	      0.28217333	     -1.82843187	     11.92449833	     -1.15476592	    -13.02309714	      9.30293043	     -6.19180214	      5.60680356	     18.68105333	     -5.40755148	      1.25460653	    -43.58019541	      8.51377708	     -7.58711688	     -3.03998215	     -8.23418230	      3.43125669	      1.26718708
      1.10383333	      7.46200849	     -4.51601088	      7.23805543	      0.59512048	      1.04451352	      0.28243670	     -2.35022264	     11.87394670	     -0.90644219	    -12.59467485	      9.31142487	     -6.12297882	      5.61216139	     18.77830648	     -5.27514447	      1.14919216	    -42.19915430	      8.21489029	     -7.91735339	     -3.08519350	     -8.28376376	      3.35591645	      1.41038949
      1.10800000	      7.42394600	     -4.47461587	      7.00168580	      0.59940167	      1.04477761	      0.28272223	     -2.79764538	     11.84072820	     -0.63415552	    -12.20141866	      9.30712023	     -6.07028184	      5.62209099	     18.93098297	     -5.17065494	      1.04285731	    -40.82572411	      7.92614688	     -8.14458798	     -3.14126491	     -8.28880726	      3.30153344	      1.55303446
      1.11216667	      7.40905037	     -4.43171993	      6.75881491	      0.60368709	      1.04502261	      0.28301418	     -3.26791765	     11.80534949	     -0.35357536	    -11.81587006	      9.31076781	     -6.02437406	      5.63575236	     19.04385947	     -5.07356617	      0.93337907	    -39.43732711	      7.64331395	     -8.29624595	     -3.20354232	     -8.31952690	      3.24935657	      1.69046205
      1.11633333	      7.36540064	     -4.40623801	      6.51110670	      0.60797995	      1.04515881	      0.28331450	     -3.69765481	     11.78233456	     -0.06741561	    -11.44575067	      9.31583942	     -5.99400766	      5.65337664	     19.18501716	     -4.99477168	      0.83470684	    -38.05038135	      7.36357803	     -8.38372911	     -3.26971844	     -8.31175078	      3.20959641	      1.82719400
      1.12050000	      7.30429691	     -4.38515078	      6.24057956	      0.61226942	      1.04522830	      0.28364801	     -4.08979290	     11.75588077	      0.22161710	    -11.11891079	      9.32784077	     -5.93072101	      5.66811319	     19.33203611	     -4.93149483	      0.71652889	    -36.65435221	      7.09572530	     -8.35802298	     -3.31851666	     -8.28895081	      3.16054042	      1.91831919
      1.12466667	      7.27445508	     -4.37215456	      5.99928563	      0.61657393	      1.04527659	      0.28393376	     -4.53892364	     11.74352175	      0.52716539	    -10.73435990	      9.32523019	     -5.94717359	      5.69484151	     19.44090931	     -4.86472959	      0.66709064	    -35.25474901	      6.81294463	     -8.39499139	     -3.39473524	     -8.29500432	      3.14586370	      2.10573064
      1.12883333	      7.18776384	     -4.38409428	      5.73711060	      0.62086551	      1.04515999	      0.28426304	     -4.89826867	     11.74812159	      0.83844986	    -10.40610245	      9.33123501	     -5.95157044	      5.72925776	     19.61635446	     -4.83303891	      0.59881800	    -33.87581934	      6.55812083	     -8.31654495	     -3.47362584	     -8.23966168	      3.14079662	      2.25082876
      1.13300000	      7.13562915	     -4.39037216	      5.46863993	      0.62515982	      1.04508171	      0.28460205	     -5.29341451	     11.74500064	      1.14568183	    -10.08517925	      9.35297071	     -5.94180946	      5.76450180	     19.73424215	     -4.80389882	      0.53599063	    -32.47635418	      6.30694520	     -8.20736014	     -3.54485743	     -8.21978989	      3.13030161	      2.38595906
      1.13716667	      7.00351130	     -4.41879327	      5.19028130	      0.62946682	      1.04480477	      0.28495405	     -5.57576340	     11.75209269	      1.42449059	     -9.81659655	      9.39417100	     -5.87571138	      5.78481927	     19.94907569	     -4.80050195	      0.46023703	    -31.10936668	      6.07417513	     -8.01470909	     -3.58178446	     -8.11743428	      3.13509431	      2.44541577
      1.14133333	      6.92241135	     -4.44385140	      4.90535190	      0.63377109	      1.04458566	      0.28532686	     -5.91962508	     11.75962969	      1.73989160	     -9.54005780	      9.43655625	     -5.86214936	      5.81152036	     20.08558481	     -4.80121297	      0.40679019	    -29.71823575	      5.82636046	     -7.86617096	     -3.62665475	     -8.06602751	      3.13459258	      2.58217170
      1.14550000	      6.82164520	     -4.48239718	      4.62591448	      0.63807694	      1.04428056	      0.28569965	     -6.23794033	     11.77858733	      2.04970615	     -9.26707434	      9.47795639	     -5.84671226	      5.83918919	     20.24553061	     -4.81583933	      0.37438809	    -28.34357773	      5.59638510	     -7.69623750	     -3.66844042	     -7.99134347	      3.15507001	      2.71506099
      1.14966667	      6.69383016	     -4.53634078	      4.34603305	      0.64237649	      1.04388374	      0.28607219	     -6.51223702	     11.80842358	      2.35446876	     -9.02312530	      9.53121989	     -5.82942519	      5.86753338	     20.43535212	     -4.84784439	      0.35925397	    -26.98254538	      5.38297587	     -7.52084924	     -3.70691009	     -7.88566776	      3.19256151	      2.84161639
      1.15383333	      6.57149908	     -4.61546262	      4.09800237	      0.64670415	      1.04344969	      0.28640519	     -6.80137124	     11.86517464	      2.62322485	     -8.75239413	      9.60558572	     -5.73799236	      5.88493222	     20.62809643	     -4.90110859	      0.39152845	    -25.65029160	      5.21533334	     -7.30284286	     -3.72764514	     -7.76349438	      3.26798911	      2.90334841
      1.15800000	      6.46305809	     -4.65384009	      3.76649013	      0.65100011	      1.04304353	      0.28688827	     -7.07407355	     11.87336825	      2.96676684	     -8.57276580	      9.67607691	     -5.76630111	      5.91685949	     20.75977113	     -4.95068498	      0.31675319	    -24.27091996	      4.95930761	     -7.17811367	     -3.76646559	     -7.70566054	      3.26370531	      3.08836983
      1.16216667	      6.34820827	     -4.71847608	      3.47890633	      0.65532358	      1.04257902	      0.28730483	     -7.35536858	     11.90968975	      3.28389102	     -8.34889788	      9.74020081	     -5.74852473	      5.95044202	     20.91030287	     -5.01398535	      0.31660524	    -22.92026769	      4.74774977	     -7.04036921	     -3.80304122	     -7.61588120	      3.30936733	      3.24917887
      1.16633333	      6.22421206	     -4.79862387	      3.19069130	      0.65964534	      1.04206074	      0.28773198	     -7.61468918	     11.95994540	      3.59442727	     -8.15102240	      9.82100140	     -5.71984943	      5.98469645	     21.07035574	     -5.09993515	      0.32085449	    -21.58701601	      4.55060842	     -6.90382275	     -3.83727968	     -7.51703613	      3.37057629	      3.38980260
